<?xml version="1.0" encoding="UTF-8" standalone="no"?>
<!DOCTYPE svg PUBLIC "-//W3C//DTD SVG 1.1//EN"
 "http://www.w3.org/Graphics/SVG/1.1/DTD/svg11.dtd">
<!-- Generated by graphviz version 2.40.1 (20161225.0304)
 -->
<!-- Title: %3 Pages: 1 -->
<svg width="622pt" height="274pt"
 viewBox="0.00 0.00 622.15 274.00" xmlns="http://www.w3.org/2000/svg" xmlns:xlink="http://www.w3.org/1999/xlink">
<g id="graph0" class="graph" transform="scale(1 1) rotate(0) translate(4 270)">
<title>%3</title>
<polygon fill="#ffffff" stroke="transparent" points="-4,4 -4,-270 618.1459,-270 618.1459,4 -4,4"/>
<g id="clust1" class="cluster">
<title>cluster_key</title>
<polygon fill="none" stroke="#000000" points="464.1459,-183 464.1459,-258 606.1459,-258 606.1459,-183 464.1459,-183"/>
<text text-anchor="middle" x="535.1459" y="-242.8" font-family="Times,serif" font-size="14.00" fill="#000000">Legend</text>
</g>
<!-- stones -->
<g id="node1" class="node">
<title>stones</title>
<polygon fill="none" stroke="#000000" points="189.1459,-227 135.1459,-227 135.1459,-191 189.1459,-191 189.1459,-227"/>
<text text-anchor="middle" x="162.1459" y="-205.3" font-family="Times,serif" font-size="14.00" fill="#000000">Stones</text>
</g>
<!-- ruby -->
<g id="node2" class="node">
<title>ruby</title>
<polygon fill="none" stroke="#000000" points="315.1459,-109 261.1459,-109 261.1459,-73 315.1459,-73 315.1459,-109"/>
<text text-anchor="middle" x="288.1459" y="-87.3" font-family="Times,serif" font-size="14.00" fill="#000000">Ruby</text>
</g>
<!-- stones&#45;&gt;ruby -->
<g id="edge1" class="edge">
<title>stones&#45;&gt;ruby</title>
<path fill="none" stroke="#000000" d="M181.5573,-190.8211C202.985,-170.7539 237.6082,-138.329 261.5511,-115.9062"/>
<polygon fill="#000000" stroke="#000000" points="264.0127,-118.3962 268.9192,-109.0059 259.2278,-113.2869 264.0127,-118.3962"/>
</g>
<!-- sapphire -->
<g id="node3" class="node">
<title>sapphire</title>
<polygon fill="none" stroke="#000000" points="170.6459,-109 105.6459,-109 105.6459,-73 170.6459,-73 170.6459,-109"/>
<text text-anchor="middle" x="138.1459" y="-87.3" font-family="Times,serif" font-size="14.00" fill="#000000">Sapphire</text>
</g>
<!-- stones&#45;&gt;sapphire -->
<g id="edge2" class="edge">
<title>stones&#45;&gt;sapphire</title>
<path fill="none" stroke="#000000" d="M158.4485,-190.8211C154.5437,-171.6226 148.3384,-141.1132 143.8149,-118.8727"/>
<polygon fill="#000000" stroke="#000000" points="147.2311,-118.1077 141.8081,-109.0059 140.3715,-119.5029 147.2311,-118.1077"/>
</g>
<!-- user0 -->
<g id="node4" class="node">
<title>user0</title>
<ellipse fill="none" stroke="#000000" cx="380.1459" cy="-18" rx="46.2923" ry="18"/>
<text text-anchor="middle" x="380.1459" y="-14.3" font-family="Times,serif" font-size="14.00" fill="#000000">User Zero</text>
</g>
<!-- ruby&#45;&gt;user0 -->
<g id="edge3" class="edge">
<title>ruby&#45;&gt;user0</title>
<path fill="none" stroke="#000000" d="M310.8875,-72.9551C323.1093,-63.2573 338.3037,-51.2009 351.344,-40.8537"/>
<polygon fill="#000000" stroke="#000000" points="353.8914,-43.3004 359.5494,-34.3429 349.5403,-37.8169 353.8914,-43.3004"/>
</g>
<!-- user1 -->
<g id="node5" class="node">
<title>user1</title>
<ellipse fill="none" stroke="#000000" cx="272.1459" cy="-18" rx="44.393" ry="18"/>
<text text-anchor="middle" x="272.1459" y="-14.3" font-family="Times,serif" font-size="14.00" fill="#000000">User One</text>
</g>
<!-- ruby&#45;&gt;user1 -->
<g id="edge4" class="edge">
<title>ruby&#45;&gt;user1</title>
<path fill="none" stroke="#000000" d="M284.1908,-72.9551C282.4024,-64.7951 280.2479,-54.9652 278.2585,-45.8887"/>
<polygon fill="#000000" stroke="#000000" points="281.6708,-45.1091 276.1109,-36.0904 274.8331,-46.6079 281.6708,-45.1091"/>
</g>
<!-- user2 -->
<g id="node6" class="node">
<title>user2</title>
<ellipse fill="none" stroke="#000000" cx="46.1459" cy="-18" rx="46.2923" ry="18"/>
<text text-anchor="middle" x="46.1459" y="-14.3" font-family="Times,serif" font-size="14.00" fill="#000000">User Two</text>
</g>
<!-- sapphire&#45;&gt;user2 -->
<g id="edge5" class="edge">
<title>sapphire&#45;&gt;user2</title>
<path fill="none" stroke="#000000" d="M115.4043,-72.9551C103.1825,-63.2573 87.9881,-51.2009 74.9478,-40.8537"/>
<polygon fill="#000000" stroke="#000000" points="76.7515,-37.8169 66.7424,-34.3429 72.4004,-43.3004 76.7515,-37.8169"/>
</g>
<!-- user3 -->
<g id="node7" class="node">
<title>user3</title>
<ellipse fill="none" stroke="#000000" cx="160.1459" cy="-18" rx="50.0912" ry="18"/>
<text text-anchor="middle" x="160.1459" y="-14.3" font-family="Times,serif" font-size="14.00" fill="#000000">User Three</text>
</g>
<!-- sapphire&#45;&gt;user3 -->
<g id="edge6" class="edge">
<title>sapphire&#45;&gt;user3</title>
<path fill="none" stroke="#000000" d="M143.5841,-72.9551C146.0433,-64.7951 149.0057,-54.9652 151.7411,-45.8887"/>
<polygon fill="#000000" stroke="#000000" points="155.1596,-46.675 154.694,-36.0904 148.4573,-44.6551 155.1596,-46.675"/>
</g>
<!-- odd -->
<g id="node8" class="node">
<title>odd</title>
<polygon fill="none" stroke="#000000" points="243.1459,-109 189.1459,-109 189.1459,-73 243.1459,-73 243.1459,-109"/>
<text text-anchor="middle" x="216.1459" y="-87.3" font-family="Times,serif" font-size="14.00" fill="#000000">Odd</text>
</g>
<!-- odd&#45;&gt;user1 -->
<g id="edge7" class="edge">
<title>odd&#45;&gt;user1</title>
<path fill="none" stroke="#000000" d="M229.9886,-72.9551C236.8025,-64.0727 245.1342,-53.2116 252.5862,-43.4975"/>
<polygon fill="#000000" stroke="#000000" points="255.5384,-45.3993 258.8481,-35.3347 249.9844,-41.1387 255.5384,-45.3993"/>
</g>
<!-- odd&#45;&gt;user3 -->
<g id="edge8" class="edge">
<title>odd&#45;&gt;user3</title>
<path fill="none" stroke="#000000" d="M202.3032,-72.9551C195.5395,-64.138 187.28,-53.3713 179.8702,-43.712"/>
<polygon fill="#000000" stroke="#000000" points="182.4998,-41.3895 173.6361,-35.5855 176.9458,-45.6501 182.4998,-41.3895"/>
</g>
<!-- programming_languages -->
<g id="node9" class="node">
<title>programming_languages</title>
<polygon fill="none" stroke="#000000" points="360.1459,-228 216.1459,-228 216.1459,-190 360.1459,-190 360.1459,-228"/>
<text text-anchor="middle" x="288.1459" y="-212.8" font-family="Times,serif" font-size="14.00" fill="#000000">Programming</text>
<text text-anchor="middle" x="288.1459" y="-197.8" font-family="Times,serif" font-size="14.00" fill="#000000">Languages</text>
</g>
<!-- programming_languages&#45;&gt;ruby -->
<g id="edge9" class="edge">
<title>programming_languages&#45;&gt;ruby</title>
<path fill="none" stroke="#000000" stroke-dasharray="5,2" d="M288.1459,-189.7786C288.1459,-170.5848 288.1459,-140.8776 288.1459,-119.0519"/>
<polygon fill="#000000" stroke="#000000" points="291.646,-119.0511 288.1459,-109.0511 284.646,-119.0511 291.646,-119.0511"/>
<text text-anchor="middle" x="368.1459" y="-160.8" font-family="Times,serif" font-size="14.00" fill="#000000">Groups with multiple parents</text>
<text text-anchor="middle" x="368.1459" y="-145.8" font-family="Times,serif" font-size="14.00" fill="#000000">allowed in AD</text>
<text text-anchor="middle" x="368.1459" y="-130.8" font-family="Times,serif" font-size="14.00" fill="#000000">but not in Keycloak</text>
</g>
<!-- spacing -->
<g id="node10" class="node">
<title>spacing</title>
</g>
<!-- groups -->
<g id="node11" class="node">
<title>groups</title>
<polygon fill="none" stroke="#000000" points="598.1459,-227 544.1459,-227 544.1459,-191 598.1459,-191 598.1459,-227"/>
<text text-anchor="middle" x="571.1459" y="-206.5" font-family="Times,serif" font-size="10.00" fill="#000000">Group</text>
</g>
<!-- users -->
<g id="node12" class="node">
<title>users</title>
<ellipse fill="none" stroke="#000000" cx="499.1459" cy="-209" rx="27" ry="18"/>
<text text-anchor="middle" x="499.1459" y="-206.5" font-family="Times,serif" font-size="10.00" fill="#000000">User</text>
</g>
</g>
</svg>
