<?xml version="1.0" encoding="UTF-8" standalone="no"?>
<!DOCTYPE svg PUBLIC "-//W3C//DTD SVG 1.1//EN"
 "http://www.w3.org/Graphics/SVG/1.1/DTD/svg11.dtd">
<!-- Generated by graphviz version 2.40.1 (20161225.0304)
 -->
<!-- Title: %3 Pages: 1 -->
<svg width="497pt" height="227pt"
 viewBox="0.00 0.00 497.15 227.00" xmlns="http://www.w3.org/2000/svg" xmlns:xlink="http://www.w3.org/1999/xlink">
<g id="graph0" class="graph" transform="scale(1 1) rotate(0) translate(4 223)">
<title>%3</title>
<polygon fill="#ffffff" stroke="transparent" points="-4,4 -4,-223 493.1459,-223 493.1459,4 -4,4"/>
<g id="clust1" class="cluster">
<title>cluster_key</title>
<polygon fill="none" stroke="#000000" points="339.1459,-136 339.1459,-211 481.1459,-211 481.1459,-136 339.1459,-136"/>
<text text-anchor="middle" x="410.1459" y="-195.8" font-family="Times,serif" font-size="14.00" fill="#000000">Legend</text>
</g>
<!-- stones -->
<g id="node1" class="node">
<title>stones</title>
<polygon fill="none" stroke="#000000" points="235.1459,-180 181.1459,-180 181.1459,-144 235.1459,-144 235.1459,-180"/>
<text text-anchor="middle" x="208.1459" y="-158.3" font-family="Times,serif" font-size="14.00" fill="#000000">Stones</text>
</g>
<!-- ruby -->
<g id="node2" class="node">
<title>ruby</title>
<polygon fill="none" stroke="#000000" points="181.1459,-108 127.1459,-108 127.1459,-72 181.1459,-72 181.1459,-108"/>
<text text-anchor="middle" x="154.1459" y="-86.3" font-family="Times,serif" font-size="14.00" fill="#000000">Ruby</text>
</g>
<!-- stones&#45;&gt;ruby -->
<g id="edge1" class="edge">
<title>stones&#45;&gt;ruby</title>
<path fill="none" stroke="#000000" d="M194.5194,-143.8314C188.2999,-135.5386 180.8137,-125.557 173.9859,-116.4533"/>
<polygon fill="#000000" stroke="#000000" points="176.7559,-114.3133 167.9559,-108.4133 171.1559,-118.5133 176.7559,-114.3133"/>
</g>
<!-- sapphire -->
<g id="node3" class="node">
<title>sapphire</title>
<polygon fill="none" stroke="#000000" points="294.6459,-108 229.6459,-108 229.6459,-72 294.6459,-72 294.6459,-108"/>
<text text-anchor="middle" x="262.1459" y="-86.3" font-family="Times,serif" font-size="14.00" fill="#000000">Sapphire</text>
</g>
<!-- stones&#45;&gt;sapphire -->
<g id="edge2" class="edge">
<title>stones&#45;&gt;sapphire</title>
<path fill="none" stroke="#000000" d="M221.7724,-143.8314C227.9919,-135.5386 235.4781,-125.557 242.3059,-116.4533"/>
<polygon fill="#000000" stroke="#000000" points="245.1359,-118.5133 248.336,-108.4133 239.5359,-114.3133 245.1359,-118.5133"/>
</g>
<!-- user0 -->
<g id="node4" class="node">
<title>user0</title>
<ellipse fill="none" stroke="#000000" cx="46.1459" cy="-18" rx="46.2923" ry="18"/>
<text text-anchor="middle" x="46.1459" y="-14.3" font-family="Times,serif" font-size="14.00" fill="#000000">User Zero</text>
</g>
<!-- ruby&#45;&gt;user0 -->
<g id="edge3" class="edge">
<title>ruby&#45;&gt;user0</title>
<path fill="none" stroke="#000000" d="M126.8929,-71.8314C112.1623,-62.0109 93.8789,-49.822 78.4371,-39.5275"/>
<polygon fill="#000000" stroke="#000000" points="79.9838,-36.3522 69.7218,-33.7173 76.1009,-42.1765 79.9838,-36.3522"/>
</g>
<!-- user1 -->
<g id="node5" class="node">
<title>user1</title>
<ellipse fill="none" stroke="#000000" cx="154.1459" cy="-18" rx="44.393" ry="18"/>
<text text-anchor="middle" x="154.1459" y="-14.3" font-family="Times,serif" font-size="14.00" fill="#000000">User One</text>
</g>
<!-- ruby&#45;&gt;user1 -->
<g id="edge4" class="edge">
<title>ruby&#45;&gt;user1</title>
<path fill="none" stroke="#000000" d="M154.1459,-71.8314C154.1459,-64.131 154.1459,-54.9743 154.1459,-46.4166"/>
<polygon fill="#000000" stroke="#000000" points="157.646,-46.4132 154.1459,-36.4133 150.646,-46.4133 157.646,-46.4132"/>
</g>
<!-- user2 -->
<g id="node6" class="node">
<title>user2</title>
<ellipse fill="none" stroke="#000000" cx="262.1459" cy="-18" rx="46.2923" ry="18"/>
<text text-anchor="middle" x="262.1459" y="-14.3" font-family="Times,serif" font-size="14.00" fill="#000000">User Two</text>
</g>
<!-- sapphire&#45;&gt;user2 -->
<g id="edge5" class="edge">
<title>sapphire&#45;&gt;user2</title>
<path fill="none" stroke="#000000" d="M262.1459,-71.8314C262.1459,-64.131 262.1459,-54.9743 262.1459,-46.4166"/>
<polygon fill="#000000" stroke="#000000" points="265.646,-46.4132 262.1459,-36.4133 258.646,-46.4133 265.646,-46.4132"/>
</g>
<!-- user3 -->
<g id="node7" class="node">
<title>user3</title>
<ellipse fill="none" stroke="#000000" cx="376.1459" cy="-18" rx="50.0912" ry="18"/>
<text text-anchor="middle" x="376.1459" y="-14.3" font-family="Times,serif" font-size="14.00" fill="#000000">User Three</text>
</g>
<!-- sapphire&#45;&gt;user3 -->
<g id="edge6" class="edge">
<title>sapphire&#45;&gt;user3</title>
<path fill="none" stroke="#000000" d="M290.9129,-71.8314C306.6073,-61.9191 326.1221,-49.594 342.517,-39.2393"/>
<polygon fill="#000000" stroke="#000000" points="344.6743,-42.0165 351.2602,-33.7173 340.9363,-36.098 344.6743,-42.0165"/>
</g>
<!-- spacing -->
<g id="node8" class="node">
<title>spacing</title>
</g>
<!-- groups -->
<g id="node9" class="node">
<title>groups</title>
<polygon fill="none" stroke="#000000" points="473.1459,-180 419.1459,-180 419.1459,-144 473.1459,-144 473.1459,-180"/>
<text text-anchor="middle" x="446.1459" y="-159.5" font-family="Times,serif" font-size="10.00" fill="#000000">Group</text>
</g>
<!-- users -->
<g id="node10" class="node">
<title>users</title>
<ellipse fill="none" stroke="#000000" cx="374.1459" cy="-162" rx="27" ry="18"/>
<text text-anchor="middle" x="374.1459" y="-159.5" font-family="Times,serif" font-size="10.00" fill="#000000">User</text>
</g>
</g>
</svg>
