<?xml version="1.0" encoding="UTF-8" standalone="no"?>
<!DOCTYPE svg PUBLIC "-//W3C//DTD SVG 1.1//EN"
 "http://www.w3.org/Graphics/SVG/1.1/DTD/svg11.dtd">
<!-- Generated by graphviz version 2.40.1 (20161225.0304)
 -->
<!-- Title: g Pages: 1 -->
<svg width="1371pt" height="357pt"
 viewBox="0.00 0.00 1371.00 357.00" xmlns="http://www.w3.org/2000/svg" xmlns:xlink="http://www.w3.org/1999/xlink">
<g id="graph0" class="graph" transform="scale(1 1) rotate(0) translate(4 353)">
<title>g</title>
<polygon fill="#ffffff" stroke="transparent" points="-4,4 -4,-353 1367,-353 1367,4 -4,4"/>
<g id="clust1" class="cluster">
<title>cluster_0</title>
<polygon fill="none" stroke="#000000" points="8,-8 8,-310 329,-310 329,-8 8,-8"/>
<text text-anchor="middle" x="168.5" y="-294.8" font-family="Times,serif" font-size="14.00" fill="#000000">Organization Structure</text>
</g>
<g id="clust3" class="cluster">
<title>cluster_1</title>
<polygon fill="none" stroke="#000000" points="337,-152 337,-310 1075,-310 1075,-152 337,-152"/>
<text text-anchor="middle" x="706" y="-294.8" font-family="Times,serif" font-size="14.00" fill="#000000">fw_rule</text>
</g>
<g id="clust5" class="cluster">
<title>cluster_key</title>
<polygon fill="none" stroke="#000000" points="1083,-144 1083,-341 1355,-341 1355,-144 1083,-144"/>
<text text-anchor="middle" x="1219" y="-325.8" font-family="Times,serif" font-size="14.00" fill="#000000">Legend</text>
</g>
<g id="clust6" class="cluster">
<title>cluster_org_structure</title>
<polygon fill="none" stroke="#000000" points="1094,-235 1094,-310 1344,-310 1344,-235 1094,-235"/>
<text text-anchor="middle" x="1219" y="-294.8" font-family="Times,serif" font-size="14.00" fill="#000000">OU=Organization Structure</text>
</g>
<g id="clust7" class="cluster">
<title>cluster_permissions</title>
<polygon fill="none" stroke="#000000" points="1091,-152 1091,-227 1215,-227 1215,-152 1091,-152"/>
<text text-anchor="middle" x="1153" y="-211.8" font-family="Times,serif" font-size="14.00" fill="#000000">OU=Permissions</text>
</g>
<g id="clust8" class="cluster">
<title>cluster_roles</title>
<polygon fill="none" stroke="#000000" points="1223,-152 1223,-227 1347,-227 1347,-152 1223,-152"/>
<text text-anchor="middle" x="1285" y="-211.8" font-family="Times,serif" font-size="14.00" fill="#000000">OU=Roles</text>
</g>
<!-- devs -->
<g id="node1" class="node">
<title>devs</title>
<polygon fill="none" stroke="#000000" points="267,-279 213,-279 213,-243 267,-243 267,-279"/>
<text text-anchor="middle" x="240" y="-257.3" font-family="Times,serif" font-size="14.00" fill="#000000">Devs</text>
</g>
<!-- security -->
<g id="node2" class="node">
<title>security</title>
<polygon fill="none" stroke="#000000" points="152,-124 90,-124 90,-88 152,-88 152,-124"/>
<text text-anchor="middle" x="121" y="-102.3" font-family="Times,serif" font-size="14.00" fill="#000000">Security</text>
</g>
<!-- devs&#45;&gt;security -->
<g id="edge1" class="edge">
<title>devs&#45;&gt;security</title>
<path fill="none" stroke="#000000" d="M226.1163,-242.9162C205.2689,-215.762 165.7494,-164.287 141.5539,-132.7719"/>
<polygon fill="#000000" stroke="#000000" points="144.0301,-130.2497 135.1641,-124.4491 138.4777,-134.5125 144.0301,-130.2497"/>
</g>
<!-- appdev -->
<g id="node3" class="node">
<title>appdev</title>
<polygon fill="none" stroke="#000000" points="245.5,-124 186.5,-124 186.5,-88 245.5,-88 245.5,-124"/>
<text text-anchor="middle" x="216" y="-102.3" font-family="Times,serif" font-size="14.00" fill="#000000">Appdev</text>
</g>
<!-- devs&#45;&gt;appdev -->
<g id="edge2" class="edge">
<title>devs&#45;&gt;appdev</title>
<path fill="none" stroke="#000000" d="M237.1999,-242.9162C233.0673,-216.2261 225.2965,-166.0397 220.3982,-134.4053"/>
<polygon fill="#000000" stroke="#000000" points="223.8457,-133.7957 218.8566,-124.4491 216.9281,-134.8669 223.8457,-133.7957"/>
</g>
<!-- user4 -->
<g id="node8" class="node">
<title>user4</title>
<ellipse fill="none" stroke="#000000" cx="292" cy="-106" rx="28.6953" ry="18"/>
<text text-anchor="middle" x="292" y="-102.3" font-family="Times,serif" font-size="14.00" fill="#000000">Zack</text>
</g>
<!-- devs&#45;&gt;user4 -->
<g id="edge3" class="edge">
<title>devs&#45;&gt;user4</title>
<path fill="none" stroke="#000000" d="M246.0668,-242.9162C255.1082,-215.966 272.1866,-165.0591 282.779,-133.4856"/>
<polygon fill="#000000" stroke="#000000" points="286.1094,-134.5626 285.9718,-123.9686 279.4729,-132.3361 286.1094,-134.5626"/>
</g>
<!-- user0 -->
<g id="node4" class="node">
<title>user0</title>
<ellipse fill="none" stroke="#000000" cx="46" cy="-34" rx="29.795" ry="18"/>
<text text-anchor="middle" x="46" y="-30.3" font-family="Times,serif" font-size="14.00" fill="#000000">Alice</text>
</g>
<!-- security&#45;&gt;user0 -->
<g id="edge4" class="edge">
<title>security&#45;&gt;user0</title>
<path fill="none" stroke="#000000" d="M102.0743,-87.8314C92.1573,-78.311 79.9216,-66.5647 69.4128,-56.4763"/>
<polygon fill="#000000" stroke="#000000" points="71.7617,-53.8794 62.1239,-49.479 66.914,-58.9292 71.7617,-53.8794"/>
</g>
<!-- user1 -->
<g id="node5" class="node">
<title>user1</title>
<ellipse fill="none" stroke="#000000" cx="121" cy="-34" rx="27" ry="18"/>
<text text-anchor="middle" x="121" y="-30.3" font-family="Times,serif" font-size="14.00" fill="#000000">Bob</text>
</g>
<!-- security&#45;&gt;user1 -->
<g id="edge5" class="edge">
<title>security&#45;&gt;user1</title>
<path fill="none" stroke="#000000" d="M121,-87.8314C121,-80.131 121,-70.9743 121,-62.4166"/>
<polygon fill="#000000" stroke="#000000" points="124.5001,-62.4132 121,-52.4133 117.5001,-62.4133 124.5001,-62.4132"/>
</g>
<!-- user2 -->
<g id="node6" class="node">
<title>user2</title>
<ellipse fill="none" stroke="#000000" cx="202" cy="-34" rx="36.2938" ry="18"/>
<text text-anchor="middle" x="202" y="-30.3" font-family="Times,serif" font-size="14.00" fill="#000000">Charlie</text>
</g>
<!-- appdev&#45;&gt;user2 -->
<g id="edge6" class="edge">
<title>appdev&#45;&gt;user2</title>
<path fill="none" stroke="#000000" d="M212.4672,-87.8314C210.9699,-80.131 209.1895,-70.9743 207.5255,-62.4166"/>
<polygon fill="#000000" stroke="#000000" points="210.9248,-61.5614 205.5804,-52.4133 204.0535,-62.8975 210.9248,-61.5614"/>
</g>
<!-- user3 -->
<g id="node7" class="node">
<title>user3</title>
<ellipse fill="none" stroke="#000000" cx="289" cy="-34" rx="32.4942" ry="18"/>
<text text-anchor="middle" x="289" y="-30.3" font-family="Times,serif" font-size="14.00" fill="#000000">David</text>
</g>
<!-- appdev&#45;&gt;user3 -->
<g id="edge7" class="edge">
<title>appdev&#45;&gt;user3</title>
<path fill="none" stroke="#000000" d="M234.421,-87.8314C243.8452,-78.5362 255.4208,-67.1192 265.4828,-57.195"/>
<polygon fill="#000000" stroke="#000000" points="268.1596,-59.4709 272.8216,-49.9568 263.2441,-54.4871 268.1596,-59.4709"/>
</g>
<!-- fwr_approve -->
<g id="node9" class="node">
<title>fwr_approve</title>
<polygon fill="#f5f5dc" stroke="#000000" points="623,-279 493,-279 493,-243 623,-243 623,-279"/>
<text text-anchor="middle" x="558" y="-257.3" font-family="Times,serif" font-size="14.00" fill="#000000">fw_rule:approve</text>
</g>
<!-- fwr_approver -->
<g id="node14" class="node">
<title>fwr_approver</title>
<polygon fill="#c0c0c0" stroke="#000000" points="623,-196 493,-196 493,-160 623,-160 623,-196"/>
<text text-anchor="middle" x="558" y="-174.3" font-family="Times,serif" font-size="14.00" fill="#000000">fw_rule:approver</text>
</g>
<!-- fwr_approve&#45;&gt;fwr_approver -->
<g id="edge8" class="edge">
<title>fwr_approve&#45;&gt;fwr_approver</title>
<path fill="none" stroke="#000000" d="M558,-242.9902C558,-232.2963 558,-218.4994 558,-206.3706"/>
<polygon fill="#000000" stroke="#000000" points="561.5001,-206.2612 558,-196.2612 554.5001,-206.2613 561.5001,-206.2612"/>
</g>
<!-- fwr_create -->
<g id="node10" class="node">
<title>fwr_create</title>
<polygon fill="#f5f5dc" stroke="#000000" points="919,-279 789,-279 789,-243 919,-243 919,-279"/>
<text text-anchor="middle" x="854" y="-257.3" font-family="Times,serif" font-size="14.00" fill="#000000">fw_rule:create</text>
</g>
<!-- fwr_changer -->
<g id="node15" class="node">
<title>fwr_changer</title>
<polygon fill="#c0c0c0" stroke="#000000" points="771,-196 641,-196 641,-160 771,-160 771,-196"/>
<text text-anchor="middle" x="706" y="-174.3" font-family="Times,serif" font-size="14.00" fill="#000000">fw_rule:changer</text>
</g>
<!-- fwr_create&#45;&gt;fwr_changer -->
<g id="edge10" class="edge">
<title>fwr_create&#45;&gt;fwr_changer</title>
<path fill="none" stroke="#000000" d="M821.8862,-242.9902C799.9492,-230.6877 770.6896,-214.2786 747.06,-201.0269"/>
<polygon fill="#000000" stroke="#000000" points="748.7404,-197.9565 738.3063,-196.1177 745.3164,-204.0619 748.7404,-197.9565"/>
</g>
<!-- fwr_read -->
<g id="node11" class="node">
<title>fwr_read</title>
<polygon fill="#f5f5dc" stroke="#000000" points="475,-279 345,-279 345,-243 475,-243 475,-279"/>
<text text-anchor="middle" x="410" y="-257.3" font-family="Times,serif" font-size="14.00" fill="#000000">fw_rule:read</text>
</g>
<!-- fwr_read&#45;&gt;fwr_approver -->
<g id="edge9" class="edge">
<title>fwr_read&#45;&gt;fwr_approver</title>
<path fill="none" stroke="#000000" d="M452.4341,-242.864C462.9101,-238.017 473.9929,-232.5685 484,-227 497.6746,-219.3907 512.1461,-210.1068 524.6299,-201.6746"/>
<polygon fill="#000000" stroke="#000000" points="526.6426,-204.5384 532.9208,-196.0041 522.6908,-198.7606 526.6426,-204.5384"/>
</g>
<!-- fwr_read&#45;&gt;fwr_changer -->
<g id="edge11" class="edge">
<title>fwr_read&#45;&gt;fwr_changer</title>
<path fill="none" stroke="#000000" d="M454.828,-242.9713C464.3224,-239.8005 474.3833,-236.9088 484,-235 516.3067,-228.5876 600.7293,-237.3433 632,-227 648.2004,-221.6414 664.2323,-211.7495 677.21,-202.2492"/>
<polygon fill="#000000" stroke="#000000" points="679.4318,-204.9566 685.2682,-196.1142 675.1915,-199.387 679.4318,-204.9566"/>
</g>
<!-- fwr_reviewer -->
<g id="node16" class="node">
<title>fwr_reviewer</title>
<polygon fill="#c0c0c0" stroke="#000000" points="475,-196 345,-196 345,-160 475,-160 475,-196"/>
<text text-anchor="middle" x="410" y="-174.3" font-family="Times,serif" font-size="14.00" fill="#000000">fw_rule:reviewer</text>
</g>
<!-- fwr_read&#45;&gt;fwr_reviewer -->
<g id="edge14" class="edge">
<title>fwr_read&#45;&gt;fwr_reviewer</title>
<path fill="none" stroke="#000000" d="M410,-242.9902C410,-232.2963 410,-218.4994 410,-206.3706"/>
<polygon fill="#000000" stroke="#000000" points="413.5001,-206.2612 410,-196.2612 406.5001,-206.2613 413.5001,-206.2612"/>
</g>
<!-- fwr_update -->
<g id="node12" class="node">
<title>fwr_update</title>
<polygon fill="#f5f5dc" stroke="#000000" points="771,-279 641,-279 641,-243 771,-243 771,-279"/>
<text text-anchor="middle" x="706" y="-257.3" font-family="Times,serif" font-size="14.00" fill="#000000">fw_rule:update</text>
</g>
<!-- fwr_update&#45;&gt;fwr_changer -->
<g id="edge12" class="edge">
<title>fwr_update&#45;&gt;fwr_changer</title>
<path fill="none" stroke="#000000" d="M706,-242.9902C706,-232.2963 706,-218.4994 706,-206.3706"/>
<polygon fill="#000000" stroke="#000000" points="709.5001,-206.2612 706,-196.2612 702.5001,-206.2613 709.5001,-206.2612"/>
</g>
<!-- fwr_delete -->
<g id="node13" class="node">
<title>fwr_delete</title>
<polygon fill="#f5f5dc" stroke="#000000" points="1067,-279 937,-279 937,-243 1067,-243 1067,-279"/>
<text text-anchor="middle" x="1002" y="-257.3" font-family="Times,serif" font-size="14.00" fill="#000000">fw_rule:delete</text>
</g>
<!-- fwr_delete&#45;&gt;fwr_changer -->
<g id="edge13" class="edge">
<title>fwr_delete&#45;&gt;fwr_changer</title>
<path fill="none" stroke="#000000" d="M952.4381,-242.9234C944.3107,-240.1505 935.9486,-237.4119 928,-235 879.4271,-220.2614 824.1393,-206.0581 780.8892,-195.5163"/>
<polygon fill="#000000" stroke="#000000" points="781.5535,-192.076 771.0103,-193.121 779.904,-198.8789 781.5535,-192.076"/>
</g>
<!-- fwr_approver&#45;&gt;user2 -->
<g id="edge16" class="edge">
<title>fwr_approver&#45;&gt;user2</title>
<path fill="none" stroke="#000000" d="M519.7838,-159.9204C508.3379,-154.6468 495.7141,-148.9692 484,-144 380.3624,-100.036 352.8627,-92.9559 248,-52 245.4663,-51.0104 242.8542,-49.9897 240.2222,-48.9608"/>
<polygon fill="#000000" stroke="#000000" points="241.2954,-45.6224 230.7075,-45.2399 238.7459,-52.1417 241.2954,-45.6224"/>
</g>
<!-- fwr_approver&#45;&gt;user4 -->
<g id="edge17" class="edge">
<title>fwr_approver&#45;&gt;user4</title>
<path fill="none" stroke="#000000" d="M522.9212,-159.8325C510.8319,-154.1276 497.0477,-148.2234 484,-144 431.9176,-127.1417 369.3491,-116.4524 330.1188,-110.8441"/>
<polygon fill="#000000" stroke="#000000" points="330.572,-107.3735 320.185,-109.4615 329.607,-114.3067 330.572,-107.3735"/>
</g>
<!-- fwr_changer&#45;&gt;user3 -->
<g id="edge18" class="edge">
<title>fwr_changer&#45;&gt;user3</title>
<path fill="none" stroke="#000000" d="M669.1091,-159.9917C657.3738,-154.55 644.2564,-148.7611 632,-144 523.8257,-101.9791 392.2452,-63.0779 328.0345,-44.8542"/>
<polygon fill="#000000" stroke="#000000" points="328.8964,-41.4607 318.3215,-42.1096 326.9929,-48.197 328.8964,-41.4607"/>
</g>
<!-- fwr_reviewer&#45;&gt;devs -->
<g id="edge15" class="edge">
<title>fwr_reviewer&#45;&gt;devs</title>
<path fill="none" stroke="#000000" d="M384.7942,-196.0007C370.1355,-205.9623 351.0441,-218.0912 333,-227 315.0889,-235.8431 294.2778,-243.6631 276.8891,-249.567"/>
<polygon fill="#000000" stroke="#000000" points="275.4843,-246.3453 267.0942,-252.8149 277.6876,-252.9896 275.4843,-246.3453"/>
</g>
<!-- groups -->
<g id="node17" class="node">
<title>groups</title>
<polygon fill="none" stroke="#000000" points="1210,-279 1102,-279 1102,-243 1210,-243 1210,-279"/>
<text text-anchor="middle" x="1156" y="-258.5" font-family="Times,serif" font-size="10.00" fill="#000000">Group</text>
</g>
<!-- permissions -->
<g id="node19" class="node">
<title>permissions</title>
<polygon fill="#f5f5dc" stroke="#000000" points="1207,-196 1099,-196 1099,-160 1207,-160 1207,-196"/>
<text text-anchor="middle" x="1153" y="-175.5" font-family="Times,serif" font-size="10.00" fill="#000000">Permissions</text>
</g>
<!-- groups&#45;&gt;permissions -->
<!-- users -->
<g id="node18" class="node">
<title>users</title>
<ellipse fill="none" stroke="#000000" cx="1282" cy="-261" rx="54" ry="18"/>
<text text-anchor="middle" x="1282" y="-258.5" font-family="Times,serif" font-size="10.00" fill="#000000">User</text>
</g>
<!-- roles -->
<g id="node20" class="node">
<title>roles</title>
<polygon fill="#c0c0c0" stroke="#000000" points="1339,-196 1231,-196 1231,-160 1339,-160 1339,-196"/>
<text text-anchor="middle" x="1285" y="-175.5" font-family="Times,serif" font-size="10.00" fill="#000000">Roles</text>
</g>
<!-- users&#45;&gt;roles -->
</g>
</svg>
