<?xml version="1.0" encoding="UTF-8" standalone="no"?>
<!DOCTYPE svg PUBLIC "-//W3C//DTD SVG 1.1//EN"
 "http://www.w3.org/Graphics/SVG/1.1/DTD/svg11.dtd">
<!-- Generated by graphviz version 2.40.1 (20161225.0304)
 -->
<!-- Title: g Pages: 1 -->
<svg width="1241pt" height="315pt"
 viewBox="0.00 0.00 1241.00 315.00" xmlns="http://www.w3.org/2000/svg" xmlns:xlink="http://www.w3.org/1999/xlink">
<g id="graph0" class="graph" transform="scale(1 1) rotate(0) translate(4 311)">
<title>g</title>
<polygon fill="#ffffff" stroke="transparent" points="-4,4 -4,-311 1237,-311 1237,4 -4,4"/>
<g id="clust1" class="cluster">
<title>cluster_0</title>
<polygon fill="none" stroke="#000000" points="8,-8 8,-299 329,-299 329,-8 8,-8"/>
<text text-anchor="middle" x="168.5" y="-283.8" font-family="Times,serif" font-size="14.00" fill="#000000">Users</text>
</g>
<g id="clust3" class="cluster">
<title>cluster_1</title>
<polygon fill="none" stroke="#000000" points="337,-152 337,-299 1075,-299 1075,-152 337,-152"/>
<text text-anchor="middle" x="706" y="-283.8" font-family="Times,serif" font-size="14.00" fill="#000000">fw_rule</text>
</g>
<g id="clust5" class="cluster">
<title>cluster_key</title>
<polygon fill="none" stroke="#000000" points="1083,-224 1083,-299 1225,-299 1225,-224 1083,-224"/>
<text text-anchor="middle" x="1154" y="-283.8" font-family="Times,serif" font-size="14.00" fill="#000000">Legend</text>
</g>
<!-- devs -->
<g id="node1" class="node">
<title>devs</title>
<polygon fill="none" stroke="#000000" points="267,-268 213,-268 213,-232 267,-232 267,-268"/>
<text text-anchor="middle" x="240" y="-246.3" font-family="Times,serif" font-size="14.00" fill="#000000">Devs</text>
</g>
<!-- security -->
<g id="node2" class="node">
<title>security</title>
<polygon fill="none" stroke="#000000" points="152,-124 90,-124 90,-88 152,-88 152,-124"/>
<text text-anchor="middle" x="121" y="-102.3" font-family="Times,serif" font-size="14.00" fill="#000000">Security</text>
</g>
<!-- devs&#45;&gt;security -->
<g id="edge1" class="edge">
<title>devs&#45;&gt;security</title>
<path fill="none" stroke="#000000" d="M224.9286,-231.7623C204.0949,-206.5518 166.3773,-160.9103 142.5647,-132.0952"/>
<polygon fill="#000000" stroke="#000000" points="145.0173,-129.5685 135.9491,-124.0896 139.6213,-134.0277 145.0173,-129.5685"/>
</g>
<!-- appdev -->
<g id="node3" class="node">
<title>appdev</title>
<polygon fill="none" stroke="#000000" points="245.5,-124 186.5,-124 186.5,-88 245.5,-88 245.5,-124"/>
<text text-anchor="middle" x="216" y="-102.3" font-family="Times,serif" font-size="14.00" fill="#000000">Appdev</text>
</g>
<!-- devs&#45;&gt;appdev -->
<g id="edge2" class="edge">
<title>devs&#45;&gt;appdev</title>
<path fill="none" stroke="#000000" d="M236.9604,-231.7623C232.8488,-207.0928 225.4766,-162.8598 220.6622,-133.9731"/>
<polygon fill="#000000" stroke="#000000" points="224.1114,-133.3781 219.0149,-124.0896 217.2066,-134.529 224.1114,-133.3781"/>
</g>
<!-- user4 -->
<g id="node8" class="node">
<title>user4</title>
<ellipse fill="none" stroke="#000000" cx="292" cy="-106" rx="28.6953" ry="18"/>
<text text-anchor="middle" x="292" y="-102.3" font-family="Times,serif" font-size="14.00" fill="#000000">Zack</text>
</g>
<!-- devs&#45;&gt;user4 -->
<g id="edge3" class="edge">
<title>devs&#45;&gt;user4</title>
<path fill="none" stroke="#000000" d="M246.5858,-231.7623C255.5822,-206.8492 271.7834,-161.9843 282.206,-133.1219"/>
<polygon fill="#000000" stroke="#000000" points="285.5257,-134.2335 285.6303,-123.6392 278.9418,-131.856 285.5257,-134.2335"/>
</g>
<!-- user0 -->
<g id="node4" class="node">
<title>user0</title>
<ellipse fill="none" stroke="#000000" cx="46" cy="-34" rx="29.795" ry="18"/>
<text text-anchor="middle" x="46" y="-30.3" font-family="Times,serif" font-size="14.00" fill="#000000">Alice</text>
</g>
<!-- security&#45;&gt;user0 -->
<g id="edge4" class="edge">
<title>security&#45;&gt;user0</title>
<path fill="none" stroke="#000000" d="M102.0743,-87.8314C92.1573,-78.311 79.9216,-66.5647 69.4128,-56.4763"/>
<polygon fill="#000000" stroke="#000000" points="71.7617,-53.8794 62.1239,-49.479 66.914,-58.9292 71.7617,-53.8794"/>
</g>
<!-- user1 -->
<g id="node5" class="node">
<title>user1</title>
<ellipse fill="none" stroke="#000000" cx="121" cy="-34" rx="27" ry="18"/>
<text text-anchor="middle" x="121" y="-30.3" font-family="Times,serif" font-size="14.00" fill="#000000">Bob</text>
</g>
<!-- security&#45;&gt;user1 -->
<g id="edge5" class="edge">
<title>security&#45;&gt;user1</title>
<path fill="none" stroke="#000000" d="M121,-87.8314C121,-80.131 121,-70.9743 121,-62.4166"/>
<polygon fill="#000000" stroke="#000000" points="124.5001,-62.4132 121,-52.4133 117.5001,-62.4133 124.5001,-62.4132"/>
</g>
<!-- user2 -->
<g id="node6" class="node">
<title>user2</title>
<ellipse fill="none" stroke="#000000" cx="202" cy="-34" rx="36.2938" ry="18"/>
<text text-anchor="middle" x="202" y="-30.3" font-family="Times,serif" font-size="14.00" fill="#000000">Charlie</text>
</g>
<!-- appdev&#45;&gt;user2 -->
<g id="edge6" class="edge">
<title>appdev&#45;&gt;user2</title>
<path fill="none" stroke="#000000" d="M212.4672,-87.8314C210.9699,-80.131 209.1895,-70.9743 207.5255,-62.4166"/>
<polygon fill="#000000" stroke="#000000" points="210.9248,-61.5614 205.5804,-52.4133 204.0535,-62.8975 210.9248,-61.5614"/>
</g>
<!-- user3 -->
<g id="node7" class="node">
<title>user3</title>
<ellipse fill="none" stroke="#000000" cx="289" cy="-34" rx="32.4942" ry="18"/>
<text text-anchor="middle" x="289" y="-30.3" font-family="Times,serif" font-size="14.00" fill="#000000">David</text>
</g>
<!-- appdev&#45;&gt;user3 -->
<g id="edge7" class="edge">
<title>appdev&#45;&gt;user3</title>
<path fill="none" stroke="#000000" d="M234.421,-87.8314C243.8452,-78.5362 255.4208,-67.1192 265.4828,-57.195"/>
<polygon fill="#000000" stroke="#000000" points="268.1596,-59.4709 272.8216,-49.9568 263.2441,-54.4871 268.1596,-59.4709"/>
</g>
<!-- fwr_approve -->
<g id="node9" class="node">
<title>fwr_approve</title>
<polygon fill="none" stroke="#000000" points="623,-268 493,-268 493,-232 623,-232 623,-268"/>
<text text-anchor="middle" x="558" y="-246.3" font-family="Times,serif" font-size="14.00" fill="#000000">fw_rule:approve</text>
</g>
<!-- fwr_approver -->
<g id="node14" class="node">
<title>fwr_approver</title>
<polygon fill="none" stroke="#000000" points="623,-196 493,-196 493,-160 623,-160 623,-196"/>
<text text-anchor="middle" x="558" y="-174.3" font-family="Times,serif" font-size="14.00" fill="#000000">fw_rule:approver</text>
</g>
<!-- fwr_approve&#45;&gt;fwr_approver -->
<g id="edge8" class="edge">
<title>fwr_approve&#45;&gt;fwr_approver</title>
<path fill="none" stroke="#000000" d="M558,-231.8314C558,-224.131 558,-214.9743 558,-206.4166"/>
<polygon fill="#000000" stroke="#000000" points="561.5001,-206.4132 558,-196.4133 554.5001,-206.4133 561.5001,-206.4132"/>
</g>
<!-- fwr_create -->
<g id="node10" class="node">
<title>fwr_create</title>
<polygon fill="none" stroke="#000000" points="919,-268 789,-268 789,-232 919,-232 919,-268"/>
<text text-anchor="middle" x="854" y="-246.3" font-family="Times,serif" font-size="14.00" fill="#000000">fw_rule:create</text>
</g>
<!-- fwr_changer -->
<g id="node15" class="node">
<title>fwr_changer</title>
<polygon fill="none" stroke="#000000" points="771,-196 641,-196 641,-160 771,-160 771,-196"/>
<text text-anchor="middle" x="706" y="-174.3" font-family="Times,serif" font-size="14.00" fill="#000000">fw_rule:changer</text>
</g>
<!-- fwr_create&#45;&gt;fwr_changer -->
<g id="edge10" class="edge">
<title>fwr_create&#45;&gt;fwr_changer</title>
<path fill="none" stroke="#000000" d="M816.6534,-231.8314C797.1231,-222.3302 773.0359,-210.6121 752.3269,-200.5374"/>
<polygon fill="#000000" stroke="#000000" points="753.6016,-197.2654 743.0781,-196.038 750.5393,-203.56 753.6016,-197.2654"/>
</g>
<!-- fwr_read -->
<g id="node11" class="node">
<title>fwr_read</title>
<polygon fill="none" stroke="#000000" points="475,-268 345,-268 345,-232 475,-232 475,-268"/>
<text text-anchor="middle" x="410" y="-246.3" font-family="Times,serif" font-size="14.00" fill="#000000">fw_rule:read</text>
</g>
<!-- fwr_read&#45;&gt;fwr_approver -->
<g id="edge9" class="edge">
<title>fwr_read&#45;&gt;fwr_approver</title>
<path fill="none" stroke="#000000" d="M447.3466,-231.8314C466.8769,-222.3302 490.9641,-210.6121 511.6731,-200.5374"/>
<polygon fill="#000000" stroke="#000000" points="513.4607,-203.56 520.9219,-196.038 510.3984,-197.2654 513.4607,-203.56"/>
</g>
<!-- fwr_read&#45;&gt;fwr_changer -->
<g id="edge11" class="edge">
<title>fwr_read&#45;&gt;fwr_changer</title>
<path fill="none" stroke="#000000" d="M458.2345,-231.8778C466.7501,-229.0163 475.5834,-226.2609 484,-224 545.622,-207.4469 564.7833,-209.8554 630.6107,-196.2171"/>
<polygon fill="#000000" stroke="#000000" points="631.6153,-199.5819 640.6721,-194.0842 630.1637,-192.7341 631.6153,-199.5819"/>
</g>
<!-- fwr_reviewer -->
<g id="node16" class="node">
<title>fwr_reviewer</title>
<polygon fill="none" stroke="#000000" points="475,-196 345,-196 345,-160 475,-160 475,-196"/>
<text text-anchor="middle" x="410" y="-174.3" font-family="Times,serif" font-size="14.00" fill="#000000">fw_rule:reviewer</text>
</g>
<!-- fwr_read&#45;&gt;fwr_reviewer -->
<g id="edge14" class="edge">
<title>fwr_read&#45;&gt;fwr_reviewer</title>
<path fill="none" stroke="#000000" d="M410,-231.8314C410,-224.131 410,-214.9743 410,-206.4166"/>
<polygon fill="#000000" stroke="#000000" points="413.5001,-206.4132 410,-196.4133 406.5001,-206.4133 413.5001,-206.4132"/>
</g>
<!-- fwr_update -->
<g id="node12" class="node">
<title>fwr_update</title>
<polygon fill="none" stroke="#000000" points="771,-268 641,-268 641,-232 771,-232 771,-268"/>
<text text-anchor="middle" x="706" y="-246.3" font-family="Times,serif" font-size="14.00" fill="#000000">fw_rule:update</text>
</g>
<!-- fwr_update&#45;&gt;fwr_changer -->
<g id="edge12" class="edge">
<title>fwr_update&#45;&gt;fwr_changer</title>
<path fill="none" stroke="#000000" d="M706,-231.8314C706,-224.131 706,-214.9743 706,-206.4166"/>
<polygon fill="#000000" stroke="#000000" points="709.5001,-206.4132 706,-196.4133 702.5001,-206.4133 709.5001,-206.4132"/>
</g>
<!-- fwr_delete -->
<g id="node13" class="node">
<title>fwr_delete</title>
<polygon fill="none" stroke="#000000" points="1067,-268 937,-268 937,-232 1067,-232 1067,-268"/>
<text text-anchor="middle" x="1002" y="-246.3" font-family="Times,serif" font-size="14.00" fill="#000000">fw_rule:delete</text>
</g>
<!-- fwr_delete&#45;&gt;fwr_changer -->
<g id="edge13" class="edge">
<title>fwr_delete&#45;&gt;fwr_changer</title>
<path fill="none" stroke="#000000" d="M953.3327,-231.866C944.9444,-229.0385 936.2655,-226.2973 928,-224 879.6243,-210.5545 824.3372,-199.0869 781.0382,-190.9646"/>
<polygon fill="#000000" stroke="#000000" points="781.6179,-187.5125 771.147,-189.1281 780.34,-194.3949 781.6179,-187.5125"/>
</g>
<!-- fwr_approver&#45;&gt;user2 -->
<g id="edge16" class="edge">
<title>fwr_approver&#45;&gt;user2</title>
<path fill="none" stroke="#000000" d="M513.2728,-159.9081C442.5768,-131.312 306.2534,-76.1699 239.9997,-49.3707"/>
<polygon fill="#000000" stroke="#000000" points="240.9515,-45.9802 230.3687,-45.475 238.3266,-52.4695 240.9515,-45.9802"/>
</g>
<!-- fwr_approver&#45;&gt;user4 -->
<g id="edge17" class="edge">
<title>fwr_approver&#45;&gt;user4</title>
<path fill="none" stroke="#000000" d="M508.8713,-159.947C500.6147,-157.1413 492.0985,-154.386 484,-152 430.7284,-136.3051 367.9805,-122.051 329.0897,-113.7007"/>
<polygon fill="#000000" stroke="#000000" points="329.7687,-110.2669 319.259,-111.6067 328.3104,-117.1133 329.7687,-110.2669"/>
</g>
<!-- fwr_changer&#45;&gt;user3 -->
<g id="edge18" class="edge">
<title>fwr_changer&#45;&gt;user3</title>
<path fill="none" stroke="#000000" d="M654.6622,-159.9137C647.0665,-157.2518 639.3313,-154.549 632,-152 521.0545,-113.4261 389.6947,-68.4209 326.5644,-46.8333"/>
<polygon fill="#000000" stroke="#000000" points="327.6264,-43.4975 317.0318,-43.5743 325.3618,-50.1211 327.6264,-43.4975"/>
</g>
<!-- fwr_reviewer&#45;&gt;devs -->
<g id="edge15" class="edge">
<title>fwr_reviewer&#45;&gt;devs</title>
<path fill="none" stroke="#000000" d="M367.4856,-196.0061C339.5439,-207.8402 303.3568,-223.1665 276.679,-234.4654"/>
<polygon fill="#000000" stroke="#000000" points="275.1566,-231.3091 267.3134,-238.432 277.8866,-237.7548 275.1566,-231.3091"/>
</g>
<!-- groups -->
<g id="node17" class="node">
<title>groups</title>
<polygon fill="none" stroke="#000000" points="1217,-268 1163,-268 1163,-232 1217,-232 1217,-268"/>
<text text-anchor="middle" x="1190" y="-247.5" font-family="Times,serif" font-size="10.00" fill="#000000">Group</text>
</g>
<!-- users -->
<g id="node18" class="node">
<title>users</title>
<ellipse fill="none" stroke="#000000" cx="1118" cy="-250" rx="27" ry="18"/>
<text text-anchor="middle" x="1118" y="-247.5" font-family="Times,serif" font-size="10.00" fill="#000000">User</text>
</g>
</g>
</svg>
